:SAMPLES-PER-SECOND 30
:FULLY-SPECIFIED
:DEGREES
78
root  12.8892 39.3714 -6.11913 -34.0311 -87.9511 25.5961
RightUpLeg  -3.91432 -11.8591 -14.1829
RightLeg  20.4192 -0.305479 -0.340855
RightFoot  -5.03314 -0.538662 9.13269
RightToes  0.00048216 0.542163 -0.142577
Spine  13.5101 0.692529 -1.96149
Spine1  7.44708 2.07315 -5.64623
HEad  -6.01513 3.68458 -7.64238
LeftShoulder1  9.07144 -13.1886 -47.4297
LeftArm  -7.62479 17.2668 -20.8566
LeftForeArm  31.3088 -22.0294 -3.31353
LeftHand  -0.25398 0.0180481 5.50724
RightShoulder  6.10603 9.87676 39.5213
RightArm  -4.4792 -1.36098 34.5354
RightForeArm  24.0631 42.9874 8.81571
RightHand  -1.57323 6.32632 -15.8987
LeftUpLeg  -6.79561 7.02917 3.98613
LeftLeg  24.4167 3.41318 2.0292
LeftFoot  -8.09139 0.117131 -2.5523
LeftToes  1.06241e-005 4.65855e-005 -8.18508e-006
79
root  13.0077 39.2915 -6.21247 -21.6946 -87.6235 13.393
RightUpLeg  -4.70601 -11.3363 -13.5294
RightLeg  21.5079 -1.18884 -0.737189
RightFoot  -5.23347 -0.506033 8.79804
RightToes  0.00048216 0.542163 -0.142577
Spine  14.8666 0.921354 -2.10327
Spine1  6.26056 2.20616 -5.64748
HEad  -6.40721 2.61713 -6.32972
LeftShoulder1  9.12315 -13.3942 -47.1147
LeftArm  -7.96366 16.1966 -20.5598
LeftForeArm  31.9906 -24.0355 -3.46034
LeftHand  -0.25398 0.0180481 5.50724
RightShoulder  6.2811 10.0407 40.2234
RightArm  -2.92884 -1.2722 34.0229
RightForeArm  24.2144 42.5351 8.65421
RightHand  -1.5257 6.41926 -15.3203
LeftUpLeg  -7.76793 6.79323 4.37903
LeftLeg  25.3879 3.121 1.95321
LeftFoot  -8.12481 0.11789 -2.55915
LeftToes  1.06241e-005 4.65855e-005 -8.18508e-006
80
root  13.2733 39.1673 -6.34083 -11.3028 -87.6739 3.25537
RightUpLeg  -6.43783 -9.53635 -12.3206
RightLeg  23.2771 -3.0951 -1.68481
RightFoot  -5.23946 -0.456758 7.88948
RightToes  0.00048216 0.542163 -0.142577
Spine  18.0597 1.36514 -2.43485
Spine1  3.17525 2.3228 -5.39858
HEad  -7.21728 1.49765 -4.64183
LeftShoulder1  9.339 -13.877 -46.8849
LeftArm  -8.65583 15.5581 -20.343
LeftForeArm  32.8808 -25.7046 -3.7705
LeftHand  -0.25398 0.0180481 5.50724
RightShoulder  6.51229 10.3603 40.7881
RightArm  -0.400526 -1.10498 32.8423
RightForeArm  22.0366 41.6025 8.49448
RightHand  -1.47692 6.44396 -14.8185
LeftUpLeg  -9.2593 6.25812 4.8778
LeftLeg  26.7307 3.38327 2.19612
LeftFoot  -8.03914 0.122896 -2.58469
LeftToes  1.06241e-005 4.65855e-005 -8.18508e-006
81
root  13.7341 38.9999 -6.49485 -6.03954 -87.4626 -1.18872
RightUpLeg  -9.24443 -8.17428 -11.3385
RightLeg  25.4079 -4.74759 -2.67537
RightFoot  -5.12992 -0.403779 6.78879
RightToes  0.00048216 0.542163 -0.142577
Spine  22.6495 1.64272 -3.11972
Spine1  -0.794044 2.11498 -5.18237
HEad  -10.352 0.654765 -2.8972
LeftShoulder1  9.77023 -14.6984 -46.8347
LeftArm  -8.84676 14.5179 -19.7454
LeftForeArm  33.05 -26.8961 -4.01652
LeftHand  -0.25398 0.0180481 5.50724
RightShoulder  6.8479 10.9779 41.0829
RightArm  2.02522 -0.105441 31.6396
RightForeArm  19.2223 40.2002 8.23411
RightHand  -1.41733 6.30946 -14.3998
LeftUpLeg  -11.7567 4.75694 4.90889
LeftLeg  28.1013 4.44023 2.91336
LeftFoot  -7.56475 0.126639 -2.46949
LeftToes  1.06241e-005 4.65855e-005 -8.18508e-006
82
root  14.3819 38.8242 -6.65702 -4.09968 -86.5076 -1.36389
RightUpLeg  -12.884 -8.48431 -10.7533
RightLeg  26.9711 -4.801 -2.87489
RightFoot  -5.07629 -0.376367 6.23715
RightToes  0.00048216 0.542163 -0.142577
Spine  27.4833 1.41613 -3.39815
Spine1  -3.98532 1.53368 -5.42661
HEad  -16.8338 0.0788833 -1.34471
LeftShoulder1  10.2836 -15.7446 -46.6118
LeftArm  -8.14471 11.7865 -19.0303
LeftForeArm  32.8094 -27.1762 -4.08979
LeftHand  -0.25398 0.0180481 5.50724
RightShoulder  7.22861 11.7168 41.2745
RightArm  3.20621 2.34757 30.5387
RightForeArm  16.0821 38.4494 7.90009
RightHand  -1.43179 6.38309 -14.4551
LeftUpLeg  -15.5412 3.004 4.66592
LeftLeg  29.0975 5.20288 3.47135
LeftFoot  -6.70144 0.129179 -2.20099
LeftToes  1.06241e-005 4.65855e-005 -8.18508e-006
83
root  15.1706 38.6915 -6.81561 0.696946 -85.2251 -3.24928
RightUpLeg  -17.3561 -9.65535 -9.93891
RightLeg  27.4209 -3.56351 -2.23844
RightFoot  -5.19659 -0.378842 6.39381
RightToes  0.00048216 0.542163 -0.142577
Spine  31.8753 0.854837 -2.58156
Spine1  -6.1375 0.995954 -6.2848
HEad  -25.3724 -0.481091 0.0230268
LeftShoulder1  10.6145 -16.7946 -45.5866
LeftArm  -6.62314 7.06553 -19.2487
LeftForeArm  32.955 -26.3214 -3.89928
LeftHand  -0.25398 0.0180481 5.50724
RightShoulder  7.49104 12.3205 41.1297
RightArm  2.73512 5.81187 29.3849
RightForeArm  12.1377 36.8914 7.68688
RightHand  -1.60669 6.91933 -15.4731
LeftUpLeg  -20.4673 2.65318 4.64383
LeftLeg  29.2673 4.53031 3.09122
LeftFoot  -5.65914 0.147396 -2.2764
LeftToes  1.06241e-005 4.65855e-005 -8.18508e-006
84
root  16.0358 38.6261 -6.96932 5.87278 -84.3128 -4.35475
RightUpLeg  -22.8778 -10.3097 -8.77895
RightLeg  27.095 -2.60339 -1.67727
RightFoot  -5.75433 -0.363756 6.64481
RightToes  0.00048216 0.542163 -0.142577
Spine  35.7081 0.413404 -1.23431
Spine1  -7.9668 0.842584 -7.46212
HEad  -33.9865 -1.01572 1.35729
LeftShoulder1  10.6712 -17.7384 -43.7025
LeftArm  -5.20737 1.43022 -20.7582
LeftForeArm  33.974 -25.3911 -3.64939
LeftHand  -0.25398 0.0180481 5.50724
RightShoulder  7.54461 12.8114 40.0939
RightArm  0.820751 9.27189 28.1582
RightForeArm  8.008 36.2359 7.75073
RightHand  -1.92825 7.76277 -17.3202
LeftUpLeg  -26.0783 4.13022 4.46601
LeftLeg  28.2515 2.85793 2.01394
LeftFoot  -4.62636 0.223203 -3.31729
LeftToes  1.06241e-005 4.65855e-005 -8.18508e-006
